# xmcd
#
# Track frame offsets:
#	225
#	25070
#	44805
#	69570
#	91395
#	113842
#	136087
#	159200
#	175105
#	196162
#	216072
#	232592
#	253532
#	272477
#	293050
#	308300
#
# Disc length: 4320 seconds
#
# Revision: 1
# Processed by: cddbd v1.5.2PL0 Copyright (c) Steve Scherf et al.
# Submitted via: audiograbber 1.83.01
#
DISCID=ca10dd10
DTITLE=Elton John - Sleeping With The Past and Reg Strikes Back
DYEAR=1989
DGENRE=Ballad
TTITLE0=Durban Deep
TTITLE1=Healing Bands
TTITLE2=Whispers
TTITLE3=Club At The End Of The Street
TTITLE4=Sleeping With The Past
TTITLE5=Stones Throw From Burtin`
TTITLE6=Sacrifice
TTITLE7=I Never Knew Her Name
TTITLE8=Amazes Me
TTITLE9=Blue Avenue
TTITLE10=Town Of Plenty
TTITLE11=A Word In Spanish
TTITLE12=Mona Lisa And Mad Hatters (Part Two)
TTITLE13=I Don`t Wanna Go On With You Like That
TTITLE14=Japanese Hands
TTITLE15=Heavy Traffic
EXTD=
EXTT0=
EXTT1=
EXTT2=
EXTT3=
EXTT4=
EXTT5=
EXTT6=
EXTT7=
EXTT8=
EXTT9=
EXTT10=
EXTT11=
EXTT12=
EXTT13=
EXTT14=
EXTT15=
PLAYORDER=
